<mxfile host="app.diagrams.net" modified="2024-07-03T22:17:12.647Z" agent="Mozilla/5.0 (Windows NT 10.0; Win64; x64) AppleWebKit/537.36 (KHTML, like Gecko) Chrome/126.0.0.0 Safari/537.36" version="24.5.4" etag="bsB7Zmc4_6GwOhg348tR" type="github">
  <diagram name="Page-1" id="KLG11u8zv4WIpuIN-ZLw">
    <mxGraphModel>
      <root>
        <mxCell id="0" />
        <mxCell id="1" parent="0" />
      </root>
    </mxGraphModel>
  </diagram>
</mxfile>
